<svg width="413" height="387" viewBox="0 0 413 387" fill="none" xmlns="http://www.w3.org/2000/svg">
<mask id="mask0_52_3832" style="mask-type:alpha" maskUnits="userSpaceOnUse" x="0" y="0" width="413" height="387">
<rect width="413" height="386.754" rx="8" fill="white"/>
</mask>
<g mask="url(#mask0_52_3832)">
<g opacity="0.1">
<g style="mix-blend-mode:screen">
<path d="M327.547 320.191L329.963 322.459C350.787 341.974 368.838 364.669 383.479 389.743C387.503 396.195 390.378 399.312 392.708 399.659C401.799 399.409 402.069 399.579 409.067 405.478C396.751 390.072 379.603 370.132 366.435 355.684L362.415 351.659C355.582 344.745 330.92 322.688 330.92 322.688C330.92 322.688 328.567 320.647 327.547 320.191Z" fill="#0674C6"/>
</g>
<g style="mix-blend-mode:screen">
<path d="M331.159 323.884L325.066 318.933L335.012 327.241L331.159 323.884Z" fill="#0674C6"/>
</g>
<g style="mix-blend-mode:screen">
<path d="M381.94 403.231C382.941 401.99 381.996 398.59 375.742 392.228C328.563 348.361 302.912 331.118 289.766 324.166C286.359 322.399 285.858 323.019 285.295 323.414C284.732 323.808 285.59 325.283 287.118 327.552C305.85 354.486 321.364 383.728 333.272 414.548C336.729 422.146 340.242 425.102 344.082 423.587C351.949 418.804 362.153 411.934 370.543 408.228C373.904 406.599 379.312 405.882 381.94 403.231Z" fill="#0674C6"/>
</g>
<g style="mix-blend-mode:screen">
<path d="M284.631 316.291C286.649 318.592 289.01 320.518 291.607 321.983C330.687 348.589 338.709 354.001 377.175 390.523C379.27 392.4 379.479 392.344 380.734 392.009C380.344 390.539 379.727 389.138 378.908 387.865C364.083 362.694 345.917 339.857 325.019 320.118C322.525 317.801 319.901 315.652 317.163 313.686L314.106 311.579C311.699 311.003 308.475 309.915 306.131 309.566C303.787 309.218 278.951 308.79 284.631 316.291Z" fill="#0674C6"/>
</g>
<g style="mix-blend-mode:screen">
<path d="M204.048 249.817L216.292 255.617C212.162 253.778 207.821 251.996 203.269 250.27C200.025 249.175 200.025 249.175 199.182 249.4C199.924 250.056 200.758 250.58 201.649 250.948C225.57 264.628 247.35 282.435 266.062 303.611C271.145 308.872 274.918 311.052 278.413 310.608C294.897 306.449 294.897 306.449 308.885 309.577C306.202 307.128 303.322 304.942 300.284 303.049L300.22 302.821C301.569 303.479 302.855 304.286 304.056 305.228L303.929 304.772L290.121 294.977C255.908 272.001 241.937 265.682 200.359 247.125C198.631 246.606 196.439 245.23 194.691 245.452L196.335 246.484C197.979 247.515 199.771 248.263 204.048 249.817ZM267.568 281.389C276.615 286.719 285.411 292.553 293.918 298.866C280.637 290.156 267.147 281.502 252.393 273.185L267.568 281.389Z" fill="#0674C6"/>
</g>
<g style="mix-blend-mode:screen">
<path d="M158.895 235.735L172.925 240.38L158.895 235.735Z" fill="#0674C6"/>
</g>
<g style="mix-blend-mode:screen">
<path d="M187.353 245.107L191.801 246.386L172.925 239.832L173.963 240.295C179.578 242.496 183.878 244.061 187.353 245.107Z" fill="#0674C6"/>
</g>
<g style="mix-blend-mode:screen">
<path d="M323.276 436.732C325.051 435.038 325.943 430.169 318.155 423.966C255.328 378.135 231.535 367.682 224.128 365.276C221.178 364.359 216.764 363.833 219.599 371.605C234.488 403.374 245.873 436.736 253.514 470.986C256.057 479.323 259.72 481.999 264.987 479.128C276.707 470.389 292.313 458.66 304.096 450.147C309.946 446.146 318.431 441.927 323.276 436.732Z" fill="#0674C6"/>
</g>
<g style="mix-blend-mode:screen">
<path d="M271.701 320.499C270.287 320.009 268.789 319.984 267.406 320.427C244.608 333.109 218.107 349.466 220.923 355.546C222.576 358.167 224.954 360.186 227.698 361.3C273.888 385.801 274.769 386.542 319.713 418.697C320.402 419.224 321.132 419.682 321.894 420.066C324.075 421.435 328.938 423.552 325.993 414.578C314.238 383.599 298.661 354.266 279.693 327.391C277.544 324.478 274.805 322.116 271.701 320.499Z" fill="#0674C6"/>
</g>
<g style="mix-blend-mode:screen">
<path d="M262.592 317.25C264.317 315.317 261.341 311.941 254.739 308.552C195.263 280.276 166.144 271.616 152.188 269.456L150.101 269.277C144.874 269.201 148.062 272.521 149.349 273.895C170.523 293.778 188.918 316.826 203.908 342.253C208.068 348.258 212.202 350.098 216.519 347.717C241.069 329.38 244.185 327.566 262.023 317.648C262.234 317.591 262.381 317.307 262.592 317.25Z" fill="#0674C6"/>
</g>
<g style="mix-blend-mode:screen">
<path d="M259.613 303.285C240.842 282.029 218.992 264.155 194.995 250.423C192.012 248.823 188.913 247.51 185.735 246.5C183.516 245.863 182.608 245.86 181.635 245.627C159.014 249.952 142.042 259.902 146.273 263.693C148.658 265.306 151.283 266.441 154.01 267.039C205.117 281.924 209.81 284.114 257.082 306.423C260.528 308.208 261.393 307.239 261.752 306.897C262.11 306.555 261.242 305.064 259.613 303.285Z" fill="#0674C6"/>
</g>
<g style="mix-blend-mode:screen">
<path d="M175.297 245.275C172.17 243.632 168.907 242.343 165.562 241.429C134.854 233.524 96.7503 223.629 58.108 223.317C56.6788 223.233 55.256 223.364 53.881 223.706L54.0092 224.169C54.836 224.608 55.6976 224.959 56.5811 225.217C81.114 231.535 104.588 242.579 125.838 257.801C131.218 261.574 135.553 262.398 139.183 260.678C146.187 256.315 155.356 249.881 163.128 248.292C166.803 247.554 173.241 248.559 175.297 245.275Z" fill="#0674C6"/>
</g>
<g style="mix-blend-mode:screen">
<path d="M50.3383 221.729C53.1357 222.203 55.9521 222.445 58.762 222.454C99.6886 225.901 120.258 227.597 166.538 241.312C169.751 242.192 169.751 242.192 170.814 241.906L168.239 240.854C161.722 238.375 155.11 236.245 148.428 234.472C114.619 225.376 104.515 224.355 60.8846 219.393C56.9444 219.61 53.0318 220.08 49.1673 220.799L48.8703 221.377L50.3383 221.729Z" fill="#0674C6"/>
</g>
<g style="mix-blend-mode:screen">
<path d="M41.524 222.796C45.0774 221.961 48.7096 221.483 52.3762 221.366L46.094 221.049C34.7909 220.832 20.7113 221.369 7.76396 221.851C14.4088 221.816 21.3962 222.194 27.9563 222.688C32.485 223.398 37.05 223.434 41.524 222.796Z" fill="#0674C6"/>
</g>
<g style="mix-blend-mode:screen">
<path d="M-10.0964 223.667C-4.70636 223.214 1.45428 223.059 7.76421 222.61C1.81746 222.706 -4.06485 223.039 -10.0964 223.667Z" fill="#0674C6"/>
</g>
<g style="mix-blend-mode:screen">
<path d="M203.495 366.579C202.636 366.44 201.768 366.482 200.942 366.702C200.115 366.923 199.346 367.319 198.679 367.867C136.032 419.261 136.032 419.261 137.169 423.349C137.805 424.657 138.691 425.818 139.766 426.752C140.841 427.685 142.08 428.37 143.398 428.76C189.618 449.345 190.499 450.086 236.291 478.837L238.618 479.923C241.49 481.351 246.183 482.049 244.85 472.401C237.157 438.365 225.819 405.201 211.067 373.583C210.08 371.651 207.56 367.445 203.495 366.579Z" fill="#0674C6"/>
</g>
<g style="mix-blend-mode:screen">
<path d="M188.013 353.661C122.213 330.273 95.9523 326.986 86.1957 326.894C83.0561 326.997 78.569 327.951 82.0333 333.894C98.4499 357.332 112.011 382.825 122.367 409.714C125.474 415.999 129.48 417.382 134.869 413.979L174.606 380.303C180.668 375.249 189.321 369.748 194.433 363.721C196.369 361.732 196.974 357.4 188.013 353.661Z" fill="#0674C6"/>
</g>
<g style="mix-blend-mode:screen">
<path d="M196.072 343.897C181.257 318.574 163.03 295.618 142.018 275.818C139.402 273.574 136.254 272.19 132.984 271.847C131.48 271.74 130.007 272.134 128.766 272.973C79.3395 315.162 81.6859 318.71 82.4893 319.969C83.2926 321.228 85.9101 322.494 89.7291 323.192C138.553 331.759 139.523 331.991 189.372 349.126C194.627 350.915 199.985 351.448 196.072 343.897Z" fill="#0674C6"/>
</g>
<g style="mix-blend-mode:screen">
<path d="M114.258 265.687C64.7561 259.641 29.8509 258.596 10.3898 262.324C7.35821 262.888 3.18267 264.254 8.00107 267.666C28.7959 279.587 47.7324 295.102 64.0051 313.551C68.5914 317.768 72.7905 318.128 77.0264 314.518C86.1746 305.633 98.0109 293.304 107.499 284.823C112.095 280.869 118.875 276.578 122.515 271.643C126.155 266.708 122.636 267.155 114.258 265.687Z" fill="#0674C6"/>
</g>
<g style="mix-blend-mode:screen">
<path d="M36.9253 226.672C25.6744 234.663 -0.411461 255.832 4.69345 259.432C7.21256 260.171 9.82343 260.318 12.3439 259.864C60.9164 257.265 65.7615 257.456 113.963 263.406C119.149 264.002 120.636 263.603 121.442 262.393C122.248 261.182 120.781 260.83 119.058 259.553C98.03 244.148 74.6623 233.044 50.2064 226.835C47.1118 226.029 43.9473 225.706 40.8128 225.877C39.4775 225.932 38.1674 226.2 36.9253 226.672Z" fill="#0674C6"/>
</g>
<g style="mix-blend-mode:screen">
<path d="M19.795 226.587C-7.31171 228.889 -48.6542 232.779 -81.4676 245.187C-82.7514 245.603 -83.9761 246.189 -85.1154 246.93L-84.8579 247.867L-82.3175 247.935C-59.8516 247.424 -37.2797 251.476 -15.7643 259.883C-13.6014 260.748 -11.3003 261.024 -9.07107 260.684C-6.8418 260.344 -4.75535 259.401 -3.00197 257.938C3.32813 250.937 11.8971 242.071 18.698 235.949C21.8106 233.092 26.8233 230.476 30.0003 227.853L29.8072 227.15C28.6115 226.97 27.0094 226.145 19.795 226.587Z" fill="#0674C6"/>
</g>
<g style="mix-blend-mode:screen">
<path d="M-90.4968 246.242L-88.8036 246.547C-86.1721 246.085 -83.5925 245.377 -81.0928 244.428C-41.6822 233.601 -25.6828 228.95 20.9597 226.139C24.0875 225.793 24.0875 225.793 24.9646 224.783L22.1358 224.534C7.85656 222.954 -6.45698 223.101 -20.5458 224.974C-31.4287 226.424 -45.8236 229.353 -56.6418 231.042L-75.1911 235.625C-84.8057 240.062 -89.8578 243.502 -90.4968 246.242Z" fill="#0674C6"/>
</g>
<g style="mix-blend-mode:screen">
<path d="M-1.69142 415.178C9.30482 438.72 17.7025 463.436 23.3242 488.804C25.4632 494.864 29.3457 495.791 35.3734 492.216C87.5242 452.493 107.244 435.435 107.18 435.206C107.117 434.978 111.769 428.086 102.651 424.628C38.2276 407.213 13.0617 406.324 4.0349 407.262C1.65186 407.653 -3.89404 408.889 -1.69142 415.178Z" fill="#0674C6"/>
</g>
<g style="mix-blend-mode:screen">
<path d="M2.64315 400.227C3.784 401.886 5.36639 402.691 9.05633 402.932C55.6775 406.921 56.6477 407.153 105.199 419.709C109.354 420.808 116.102 421.46 113.623 412.549C103.394 385.942 89.9803 360.721 73.7323 337.541C72.7702 336.213 71.5195 335.152 70.0983 334.458C68.677 333.764 67.1322 333.46 65.6096 333.575C63.8526 333.996 62.2307 334.85 60.8693 336.069C1.52228 397.827 1.52234 397.827 2.64315 400.227Z" fill="#0674C6"/>
</g>
<g style="mix-blend-mode:screen">
<path d="M48.7936 326.877C0.495972 326.705 -32.7504 329.92 -49.6743 336.182C-51.9406 337.036 -56.7693 339.317 -53.3089 343.583C-37.7485 358.34 -24.1983 375.374 -13.0993 394.133C-9.94272 398.397 -5.87388 398.297 -0.892905 393.832L55.7545 333.914C57.2138 331.793 57.8863 327.657 48.7936 326.877Z" fill="#0674C6"/>
</g>
<g style="mix-blend-mode:screen">
<path d="M56.6658 316.82C40.5172 298.485 21.6883 283.1 1.00051 271.338C-1.73992 269.89 -4.83576 269.571 -7.6739 270.444C-9.19667 270.98 -10.582 271.857 -11.7417 273.019C-55.1342 329.195 -54.0506 330.637 -52.9031 332.31C-51.7557 333.983 -49.636 333.415 -46.1804 332.737C-0.282289 324.155 0.841594 324.101 50.1655 323.759C57.6722 323.729 59.9803 321.378 56.6658 316.82Z" fill="#0674C6"/>
</g>
</g>
</g>
</svg>
