<svg width="4886" height="704" viewBox="0 0 4886 704" fill="none" xmlns="http://www.w3.org/2000/svg">
<path opacity="0.6" d="M0 45.2954C0 45.2954 173.5 117 512.5 45.2954C747.5 10.0002 860.048 92.8757 1014 114C1390.5 165.661 1516.2 78.778 1652.5 48.8392C2051.5 -38.8039 2040.5 9 2267 60.5002C2359.23 81.4711 2497.42 109.285 2623.5 114C2807.05 120.865 2970 98.5002 2970 98.5002C3185 71.5 3347.53 5.29584 3446 5.29584C3674.94 5.29584 3697.39 104.796 3991.5 104.796C4150.39 104.796 4198.92 51.2958 4449 51.2958C4714.93 51.2958 4885.5 150.796 4885.5 150.796V703.296H0V45.2954Z" fill="url(#paint0_linear_198_5732)"/>
<defs>
<linearGradient id="paint0_linear_198_5732" x1="2442.75" y1="0.248779" x2="2442.75" y2="703.296" gradientUnits="userSpaceOnUse">
<stop stop-color="#22527A"/>
<stop offset="1" stop-color="#02295B"/>
</linearGradient>
</defs>
</svg>
