<?xml version="1.0" encoding="UTF-8"?>
<svg width="49px" height="98px" viewBox="0 0 49 98" version="1.1" xmlns="http://www.w3.org/2000/svg" xmlns:xlink="http://www.w3.org/1999/xlink">
    <!-- Generator: Sketch 52.5 (67469) - http://www.bohemiancoding.com/sketch -->
    <title>Group 2</title>
    <desc>Created with Sketch.</desc>
    <g id="Page-1" stroke="none" stroke-width="1" fill="none" fill-rule="evenodd">
        <g id="Group-2" transform="translate(0.000000, -1.000000)">
            <polygon id="Fill-1" fill="#006BB6" points="0.0253164557 74.0948101 23.321519 74.0948101 23.321519 50.7973418 0.0253164557 50.7973418"></polygon>
            <path d="M5.93265823,54.6122785 L5.93265823,63.7768354 C5.93265823,68.6249367 8.33265823,70.4236709 11.5212658,70.4236709 C14.8870886,70.4236709 17.4048101,68.4818987 17.4048101,63.7072152 L17.4048101,54.6122785 L15.3731646,54.6122785 L15.3731646,63.8451899 C15.3731646,67.2667089 13.8718987,68.786962 11.5883544,68.786962 C9.51113924,68.786962 7.96683544,67.3072152 7.96683544,63.8451899 L7.96683544,54.6122785 L5.93265823,54.6122785 Z" id="Fill-2" fill="#FEFEFE"></path>
            <polygon id="Fill-4" fill="#006BB6" points="24.7582278 74.0935443 48.0544304 74.0935443 48.0544304 50.7960759 24.7582278 50.7960759"></polygon>
            <path d="M32.4636709,70.2262025 L32.4636709,63.5806329 C32.4636709,60.9907595 32.4396203,59.1236709 32.3218987,57.1629114 L32.3940506,57.1401266 C33.1586076,58.8236709 34.1978481,60.6008861 35.2801266,62.33 L40.2181013,70.2262025 L42.248481,70.2262025 L42.248481,54.6679747 L40.3598734,54.6679747 L40.3598734,61.1996203 C40.3598734,63.6072152 40.4041772,65.494557 40.5877215,67.573038 L40.5168354,67.594557 C39.8003797,65.9806329 38.8826582,64.3616456 37.748481,62.5413924 L32.7864557,54.6679747 L30.57,54.6679747 L30.57,70.2262025 L32.4636709,70.2262025 Z" id="Fill-6" fill="#FEFEFE"></path>
            <polygon id="Fill-7" fill="#006BB6" points="24.7582278 98.8201266 48.0544304 98.8201266 48.0544304 75.5239241 24.7582278 75.5239241"></polygon>
            <path d="M40.3422785,80.5283544 C39.416962,79.695443 37.9650633,79.2334177 35.9777215,79.2334177 C34.3625316,79.2334177 33.0929114,79.3739241 32.124557,79.5574684 L32.124557,94.9055696 L34.1321519,94.9055696 L34.1321519,88.6764557 C34.5967089,88.7891139 35.1486076,88.8118987 35.7498734,88.8118987 C37.7106329,88.8118987 39.4397468,88.2283544 40.5005063,87.1043038 C41.3106329,86.2929114 41.724557,85.1840506 41.724557,83.7789873 C41.724557,82.3916456 41.1929114,81.2637975 40.3422785,80.5283544" id="Fill-8" fill="#FEFEFE"></path>
            <path d="M35.7951899,87.2888608 C35.1483544,87.2888608 34.5711392,87.2420253 34.1318987,87.1281013 L34.1318987,81.0825316 C34.4787342,81.0141772 35.1483544,80.9205063 36.0243038,80.9205063 C38.2407595,80.9205063 39.6977215,81.9091139 39.6977215,83.9901266 C39.6977215,86.0888608 38.2407595,87.2888608 35.7951899,87.2888608" id="Fill-9" fill="#006BB6"></path>
            <polygon id="Fill-10" fill="#006BB6" points="0 98.8429114 23.2987342 98.8429114 23.2987342 75.5467089 0 75.5467089"></polygon>
            <path d="M16.3818987,81.1291139 C15.0198734,79.8594937 12.9679747,79.2101266 10.0818987,79.2101266 C8.48696203,79.2101266 7.03759494,79.3506329 5.78822785,79.535443 L5.78822785,94.8392405 C6.82620253,94.9759494 8.00468354,95.0177215 9.45911392,95.0177215 C12.4793671,95.0177215 14.8793671,94.2405063 16.3616456,92.7848101 C17.7882278,91.3556962 18.594557,89.2746835 18.594557,86.7392405 C18.594557,84.2202532 17.7882278,82.3987342 16.3818987,81.1291139" id="Fill-11" fill="#FEFEFE"></path>
            <path d="M9.85126582,93.4091139 C9.06265823,93.4091139 8.32721519,93.4091139 7.82088608,93.3141772 L7.82088608,81.0141772 C8.35126582,80.8989873 9.13734177,80.8091139 10.1727848,80.8091139 C14.4183544,80.8091139 16.4993671,83.0939241 16.4740506,86.8065823 C16.4740506,91.0065823 14.1411392,93.4306329 9.85126582,93.4091139" id="Fill-12" fill="#006BB6"></path>
            <polygon id="Fill-13" fill="#006BB6" points="0.0240506329 49.3340506 48.078481 49.3340506 48.078481 1.27075949 0.0240506329 1.27075949"></polygon>
            <path d="M41.2465823,26.2956962 C40.5744304,27.2475949 39.7605063,28.14 39.1377215,29.1134177 C39.2086076,28.3437975 39.298481,27.3956962 38.9972152,26.6665823 C38.4794937,25.096962 38.0237975,23.504557 37.8807595,21.7805063 L37.8959494,21.1210127 C38.2870886,22.8817722 40.0162025,24.0931646 39.9060759,26.0665823 C39.9453165,26.5450633 39.7959494,26.9488608 39.7098734,27.3703797 L39.7402532,27.4032911 L39.8187342,27.3134177 C40.0744304,26.3475949 40.2010127,25.3273418 40.5997468,24.4235443 C41.1681013,23.1273418 41.8731646,21.8134177 41.5858228,20.2450633 C42.4478481,22.0956962 42.1896203,24.5665823 41.2465823,26.2956962" id="Fill-14" fill="#FEFEFE"></path>
            <path d="M40.1810127,16.3249367 C41.3177215,17.8616456 41.5670886,20.308481 40.7392405,22.0692405 C40.4341772,22.8173418 40.2151899,23.6122785 40.0936709,24.4388608 C40.0341772,24.2970886 40.0227848,24.1046835 39.9721519,23.9451899 C39.5227848,22.2224051 37.8898734,20.9932911 37.2177215,19.3667089 C37.0075949,18.8337975 36.8278481,18.2856962 36.7253165,17.7072152 C37.4405063,19.0325316 39.2088608,19.7186076 39.6898734,21.1781013 C39.8873418,21.5502532 39.8759494,22.0097468 39.9962025,22.408481 C40.0227848,22.408481 40.0481013,22.3894937 40.0481013,22.3641772 C39.8379747,20.8591139 39.9012658,19.2818987 40.1063291,17.7983544 C40.0936709,16.9907595 40.0164557,16.2110127 39.5696203,15.5882278 C39.8556962,15.7553165 39.9860759,16.0755696 40.1810127,16.3249367" id="Fill-15" fill="#FEFEFE"></path>
            <path d="M39.3836709,16.0306329 C39.6824051,17.3762025 39.2494937,18.6888608 39.5229114,20.0458228 L39.5102532,20.0572152 C38.7798734,18.6167089 37.2229114,17.9394937 36.154557,16.7863291 C35.533038,16.101519 35.2646835,15.2673418 35.111519,14.3837975 C35.7267089,15.8635443 37.3773418,16.1901266 38.3267089,17.4318987 C38.6456962,17.7192405 38.7482278,18.1179747 38.9532911,18.4458228 L38.9849367,18.4116456 C38.4393671,17.2470886 38.254557,15.9331646 37.8811392,14.6926582 C37.6849367,14.1534177 37.3077215,13.623038 36.8001266,13.2825316 C38.0444304,13.5394937 39.1267089,14.8394937 39.3836709,16.0306329" id="Fill-16" fill="#FEFEFE"></path>
            <path d="M36.0522785,12.9434177 C36.9940506,13.7826582 37.4168354,14.8712658 37.6940506,15.9991139 L37.8459494,16.3560759 C36.4826582,15.3788608 35.2459494,14.0573418 34.3750633,12.6687342 L33.3105063,11.5927848 C34.2472152,11.9889873 35.2522785,12.2256962 36.0522785,12.9434177" id="Fill-17" fill="#FEFEFE"></path>
            <path d="M18.2386076,11.9001266 C20.0120253,11.0241772 21.9537975,10.5558228 24.0651899,10.5178481 C28.893038,10.525443 33.5031646,13.3596203 35.6044304,17.8292405 C36.9360759,20.3975949 37.314557,23.933038 36.4512658,26.833038 C35.571519,30.2583544 32.6905063,33.7241772 29.3360759,35.133038 C25.5588608,36.9836709 20.1892405,36.5216456 16.8221519,34.1064557 C12.1411392,30.9001266 10.2259494,25.3722785 11.6411392,19.9165823 C12.5006329,16.6760759 15.0803797,13.4051899 18.2386076,11.9001266" id="Fill-18" fill="#FEFEFE"></path>
            <path d="M14.5350633,11.7727848 C13.5932911,12.5981013 12.9401266,13.6424051 12.2439241,14.6170886 C11.6160759,15.3905063 10.8160759,15.9031646 10.1034177,16.5689873 C10.4882278,15.7753165 10.5021519,14.8259494 11.0477215,14.0968354 C11.8224051,12.7449367 13.2578481,12.271519 14.5350633,11.7727848" id="Fill-19" fill="#FEFEFE"></path>
            <path d="M9.38835443,14.6462025 C9.84278481,14.0765823 10.4250633,13.6791139 11.0782278,13.514557 C9.81367089,14.3841772 9.89341772,15.9462025 9.49088608,17.2474684 C9.36177215,17.728481 9.13898734,18.1702532 9.02886076,18.6613924 L9.06303797,18.6879747 C9.2756962,18.128481 9.64531646,17.606962 10.1035443,17.1512658 C11.0086076,16.3183544 12.341519,15.8006329 12.7832911,14.5702532 C12.763038,16.2803797 11.3351899,17.6234177 9.97063291,18.5867089 C9.40481013,19.0778481 8.86177215,19.6424051 8.55417722,20.2740506 C8.52253165,19.8462025 8.62126582,19.4107595 8.58835443,18.95 C8.44025316,17.4575949 8.33265823,15.7550633 9.38835443,14.6462025" id="Fill-20" fill="#FEFEFE"></path>
            <path d="M6.8221519,19.751519 C6.78291139,18.2388608 7.40949367,17.0034177 8.29556962,15.8768354 C8.31835443,15.8641772 8.33860759,15.8388608 8.37025316,15.8439241 C7.39810127,17.3236709 8.20063291,19.186962 8.15886076,20.8705063 L8.02974684,22.594557 C8.04620253,22.6059494 8.04620253,22.6578481 8.09303797,22.6375949 C8.15,22.4477215 8.16518987,22.2413924 8.20063291,22.0439241 C8.4335443,20.651519 9.63860759,19.6667089 10.6943038,18.7059494 C10.9208861,18.4591139 11.114557,18.1996203 11.2322785,17.908481 C11.1487342,18.5983544 10.9297468,19.2970886 10.6436709,19.9375949 C9.82341772,21.5375949 8.30443038,22.8489873 8.02974684,24.6806329 C7.89683544,22.9287342 6.69810127,21.6148101 6.8221519,19.751519" id="Fill-21" fill="#FEFEFE"></path>
            <path d="M6.08164557,21.9017722 C6.19177215,21.4283544 6.2778481,20.9410127 6.48164557,20.5068354 C6.08924051,22.5055696 7.4335443,23.9448101 7.87531646,25.681519 C8.06139241,26.3270886 8.10822785,27.024557 8.37025316,27.6334177 C8.39556962,27.6473418 8.41582278,27.6207595 8.4335443,27.6017722 C7.77531646,25.7574684 8.7221519,24.0473418 9.67531646,22.6055696 C9.9056962,22.2156962 10.0424051,21.7789873 10.1550633,21.3334177 C10.2563291,22.1650633 10.0487342,23.1270886 9.92468354,23.9903797 C9.6943038,25.0916456 9.34873418,26.1346835 9.04873418,27.2055696 C8.84873418,27.8688608 8.90189873,28.6258228 9.00443038,29.324557 L8.90822785,29.2473418 C8.20696203,27.9612658 6.82594937,26.9549367 6.41835443,25.5460759 C6.0778481,24.424557 5.85253165,23.1270886 6.08164557,21.9017722" id="Fill-22" fill="#FEFEFE"></path>
            <path d="M6.01860759,25.8086076 C6.17303797,27.9288608 8.45278481,29.0503797 9.50974684,30.8035443 C9.76037975,31.1617722 9.97810127,31.5579747 10.3110127,31.8579747 C10.2565823,31.6351899 10.0489873,31.4440506 9.97177215,31.2124051 C9.59962025,30.476962 9.46544304,29.6010127 9.55405063,28.7086076 C9.6578481,27.6275949 10.1122785,26.6212658 9.94012658,25.4820253 C10.8667089,27.4858228 10.5856962,29.984557 11.1046835,32.1541772 C11.2401266,32.6288608 11.5160759,33.0503797 11.6932911,33.5060759 C9.7856962,32.2048101 7.18443038,30.9693671 6.33759494,28.5870886 C5.98189873,27.7668354 5.94265823,26.7503797 6.01860759,25.8086076" id="Fill-23" fill="#FEFEFE"></path>
            <path d="M7.15898734,30.675443 C8.22227848,33.0817722 10.8855696,33.2805063 12.6729114,34.7475949 C12.9982278,35.0362025 13.3475949,35.2855696 13.7172152,35.4589873 L13.7349367,35.4387342 C13.3248101,35.0678481 12.8526582,34.6463291 12.5640506,34.1653165 C11.5197468,32.7121519 11.8855696,30.675443 11.104557,29.1134177 C11.8159494,29.9640506 12.461519,30.8463291 12.8906329,31.8134177 C13.5336709,33.3906329 13.775443,35.1691139 15.2551899,36.3627848 C13.6501266,35.8362025 11.7779747,35.9843038 10.3678481,34.996962 C8.82481013,34.0501266 7.44759494,32.4425316 7.15898734,30.675443" id="Fill-24" fill="#FEFEFE"></path>
            <path d="M9.89341772,35.164557 C11.5946835,37.1050633 14.384557,36.456962 16.6567089,36.9632911 C16.9744304,37.0101266 17.2706329,37.1367089 17.6124051,37.0848101 C17.3402532,36.9126582 16.9643038,36.9316456 16.6681013,36.7772152 C14.8883544,36.1493671 14.6263291,34.2227848 13.6579747,32.9240506 C14.8946835,33.743038 15.9326582,34.8493671 17.0718987,35.9202532 C17.8934177,36.635443 18.876962,36.9696203 19.9136709,37.1822785 C19.6655696,37.2721519 19.3377215,37.2455696 19.0693671,37.3164557 C17.2073418,37.778481 15.1301266,38.5265823 13.1529114,37.8531646 C11.8668354,37.4493671 10.5389873,36.4329114 9.89341772,35.164557" id="Fill-25" fill="#FEFEFE"></path>
            <path d="M33.0367089,39.6839241 C31.1151899,40.4016456 29.1101266,39.6522785 27.6101266,38.5143038 C27.0050633,38.1282278 26.4670886,37.5712658 25.678481,37.6244304 C25.3962025,37.6168354 25.1202532,37.6294937 24.878481,37.7003797 C26.3367089,38.3788608 27.6911392,39.313038 28.9316456,40.5117722 C28.7202532,40.748481 28.4518987,40.9712658 28.1974684,41.1775949 C27.0050633,39.8927848 25.678481,38.6535443 24.2,37.9307595 C23.9126582,37.9687342 23.6341772,38.1421519 23.3759494,38.2801266 C22.1696203,39.0434177 20.9772152,40.0244304 20.0835443,41.2218987 L19.3126582,40.5877215 C20.543038,39.3459494 21.9025316,38.3788608 23.3848101,37.6864557 C21.9278481,37.226962 20.9734177,38.448481 19.8658228,39.07 C18.5721519,39.9725316 16.7151899,40.3953165 15.1506329,39.7750633 C14.3101266,39.4548101 13.5,38.9864557 12.8911392,38.2244304 C14.1227848,39.07 15.9518987,39.1598734 17.3468354,38.6105063 C19.2240506,37.7965823 21.1683544,36.7662025 23.4291139,37.2573418 C23.7835443,37.2649367 24.1278481,37.6168354 24.4620253,37.3155696 C26.1405063,36.8801266 28.0405063,37.1813924 29.4873418,37.9497468 L30.9797468,38.5446835 C32.364557,39.0560759 34.1582278,38.9181013 35.3417722,38.07 C34.7329114,38.8320253 33.9012658,39.3775949 33.0367089,39.6839241" id="Fill-26" fill="#FEFEFE"></path>
            <path d="M35.0986076,37.7005063 C32.9378481,38.5144304 30.7694937,37.5156962 28.7011392,37.1827848 L28.3036709,37.1296203 L28.3036709,37.1182278 C29.2910127,36.8941772 30.2505063,36.5992405 31.0378481,35.8853165 C32.1973418,34.7726582 33.2277215,33.6283544 34.5150633,32.7498734 C33.5606329,33.9726582 33.4606329,35.7131646 31.8846835,36.5017722 C31.4910127,36.7574684 31.0011392,36.8017722 30.5973418,36.9967089 C31.1732911,37.0093671 31.6973418,36.8017722 32.2682278,36.7460759 C34.3821519,36.4144304 36.7998734,36.7536709 38.2808861,34.9524051 C37.7302532,36.2055696 36.3555696,37.2574684 35.0986076,37.7005063" id="Fill-27" fill="#FEFEFE"></path>
            <path d="M36.2939241,35.5037975 C35.1951899,35.7987342 34.0179747,35.8949367 32.944557,36.2582278 C34.758481,34.7037975 34.6572152,32.2949367 35.8660759,30.464557 C36.2496203,29.943038 36.5698734,29.3987342 37.0192405,28.9088608 C36.2850633,30.3873418 36.6027848,32.3012658 35.7572152,33.735443 C35.4318987,34.3025316 34.9648101,34.8556962 34.4496203,35.3063291 C34.6192405,35.2974684 34.7673418,35.1531646 34.9116456,35.0556962 C36.2901266,33.6848101 38.0837975,33.3 39.5686076,32.1860759 C40.1635443,31.7113924 40.7091139,31.0911392 40.9711392,30.4202532 C40.6888608,32.6911392 38.4293671,34.8240506 36.2939241,35.5037975" id="Fill-28" fill="#FEFEFE"></path>
            <path d="M39.0172152,31.6297468 C38.1653165,32.185443 37.3020253,32.7031646 36.483038,33.3373418 L36.483038,33.2639241 C37.74,31.1753165 37.1222785,28.3107595 37.8956962,26.0196203 L38.1843038,25.2525316 C38.0248101,26.6778481 38.6450633,27.8892405 38.6032911,29.3246835 C38.5564557,30.1905063 38.2741772,30.9575949 37.8197468,31.6487342 L37.8956962,31.6487342 C38.5121519,30.8424051 38.9918987,29.985443 39.7096203,29.214557 C40.8235443,28.1398734 41.9564557,27.0398734 42.104557,25.5462025 C42.4805063,28.0360759 41.0855696,30.2183544 39.0172152,31.6297468" id="Fill-29" fill="#FEFEFE"></path>
            <path d="M29.3794937,31.4640506 L29.4681013,31.34 C29.8541772,31.04 30.2693671,30.7564557 30.6098734,30.3868354 L30.655443,30.3868354 C30.5756962,30.361519 30.4794937,30.4374684 30.3921519,30.4007595 C30.2098734,30.3172152 30.1807595,30.1564557 30.1807595,29.9703797 L29.3921519,29.1577215 L29.3503797,29.0362025 C29.2908861,29.1906329 29.1744304,29.2855696 29.0605063,29.3994937 C29.0668354,29.5032911 29.0288608,29.6577215 29.1516456,29.7260759 C29.4073418,29.8108861 29.7402532,29.9792405 29.7972152,30.2779747 C29.6946835,30.561519 29.155443,30.8159494 29.4870886,31.1235443 C29.5959494,31.2767089 29.3351899,31.3336709 29.3794937,31.4640506" id="Fill-30" fill="#006BB6"></path>
            <path d="M24.8013924,21.0698734 C24.9494937,21.1521519 25.0305063,21.0002532 25.1558228,20.9673418 C25.333038,20.9875949 25.4722785,21.1407595 25.5824051,21.2546835 C25.6963291,21.3065823 25.8064557,21.236962 25.9089873,21.1989873 C25.9798734,20.6673418 26.6456962,20.7432911 26.8431646,20.2458228 L26.7229114,20.2901266 C26.6710127,20.2192405 26.5444304,20.2508861 26.5507595,20.1356962 C26.6583544,20.0306329 26.8001266,19.8724051 26.9343038,19.8281013 C26.3596203,19.4686076 25.7621519,19.1610127 25.1077215,18.9964557 C24.854557,18.936962 24.5836709,18.9306329 24.3393671,18.8420253 C24.4621519,19.2065823 24.3532911,19.744557 24.4317722,20.1686076 L24.8887342,20.3192405 C25.0267089,20.0964557 25.3191139,20.0534177 25.4482278,19.8407595 C25.5305063,19.7698734 25.625443,19.8407595 25.6925316,19.9167089 C25.7127848,20.0901266 25.6672152,20.2622785 25.6153165,20.4293671 C25.4418987,20.7762025 25.0305063,20.8179747 24.8013924,21.0698734" id="Fill-31" fill="#006BB6"></path>
            <path d="M31.6236709,25.3722785 C31.3527848,26.2317722 31.0388608,27.068481 30.5008861,27.8191139 C30.2907595,28.0874684 30.0818987,28.4608861 29.8097468,28.6001266 L30.3920253,29.1127848 C30.4224051,29.0811392 30.4059494,29.0292405 30.4122785,28.9849367 C30.4122785,28.9089873 30.4489873,28.8178481 30.5451899,28.8305063 C30.8262025,28.8241772 30.8325316,29.125443 30.9932911,29.2798734 C30.9603797,29.5241772 31.173038,29.7153165 31.1008861,29.9393671 C32.7173418,28.2355696 33.5236709,26.1482278 33.673038,23.8368354 L33.7591139,23.7343038 C33.1831646,23.79 32.5743038,23.7507595 31.9806329,23.7596203 L31.8388608,23.7153165 C31.8793671,24.1051899 31.7755696,24.4836709 31.751519,24.868481 L31.9591139,25.0975949 C32.0211392,25.1874684 31.9983544,25.3216456 31.9160759,25.3912658 C31.8249367,25.4507595 31.7110127,25.4456962 31.6236709,25.3722785" id="Fill-32" fill="#006BB6"></path>
            <path d="M30.0822785,19.7051899 C29.8670886,19.2963291 29.5227848,18.9305063 29.2253165,18.5659494 L29.1949367,18.6444304 C28.6050633,19.2570886 27.956962,19.8912658 27.3949367,20.5203797 C27.4316456,20.5963291 27.4962025,20.6672152 27.5696203,20.7051899 C27.5924051,20.5507595 27.6772152,20.4165823 27.6924051,20.2570886 C27.843038,20.0456962 28.0759494,20.1798734 28.2721519,20.2241772 C28.5797468,20.1532911 28.8683544,20.2950633 29.1810127,20.29 C29.4139241,20.4039241 29.4329114,20.6988608 29.6443038,20.8140506 C29.7012658,20.8950633 29.656962,20.9937975 29.578481,21.0570886 C29.6443038,21.5381013 29.8734177,20.9292405 30.1177215,21.0444304 C30.2189873,21.0836709 30.3468354,21.0697468 30.4227848,21.1786076 C30.4620253,21.3773418 30.7050633,21.3406329 30.7177215,21.5305063 C30.6987342,21.6267089 30.5974684,21.6507595 30.5303797,21.7051899 C30.5898734,21.8950633 30.335443,22.0165823 30.4227848,22.2229114 C30.7936709,22.2925316 30.8075949,21.8634177 30.9797468,21.6722785 C30.8848101,21.3406329 30.8139241,21.0001266 30.6240506,20.7051899 C30.4126582,20.6608861 30.2848101,20.4089873 30.0721519,20.3659494 C29.6620253,20.2039241 30.135443,19.9494937 30.0822785,19.7051899" id="Fill-33" fill="#006BB6"></path>
            <path d="M24.3712658,33.0765823 C24.8459494,32.9170886 25.3965823,32.9424051 25.9092405,32.8588608 C25.8079747,32.8196203 25.7029114,32.7955696 25.6256962,32.6917722 C25.3256962,32.6727848 25.1851899,32.3601266 25.0889873,32.1221519 C25.0434177,31.9512658 25.1611392,31.8094937 25.2320253,31.6613924 C25.1041772,31.3993671 24.7067089,31.5879747 24.4750633,31.4955696 C24.4117722,31.4424051 24.3649367,31.3651899 24.2775949,31.3525316 L24.3712658,31.4955696 C24.3712658,32.0208861 24.4358228,32.5588608 24.3712658,33.0765823" id="Fill-34" fill="#006BB6"></path>
            <path d="M24.7834177,28.0813924 C24.9492405,28.113038 24.831519,28.2927848 24.9543038,28.3573418 C25.2163291,28.2725316 25.4175949,28.5801266 25.6264557,28.3889873 C25.6150633,28.0864557 25.9555696,28.113038 26.1403797,28.0358228 C26.4302532,27.8649367 26.7555696,27.6332911 26.7226582,27.248481 L26.6758228,27.1927848 C26.4770886,27.1927848 26.3758228,27.3446835 26.231519,27.4662025 C26.0492405,27.57 25.9581013,27.2737975 25.8112658,27.3446835 C25.8188608,27.3775949 25.8517722,27.3902532 25.8770886,27.4029114 C25.9150633,27.448481 25.9277215,27.5434177 25.8770886,27.5889873 C25.6593671,27.7877215 25.5581013,27.491519 25.3517722,27.5105063 L25.3517722,27.5889873 C25.3593671,27.6332911 25.3391139,27.7041772 25.2758228,27.6775949 C25.1467089,27.4662025 24.8846835,27.5434177 24.7555696,27.3598734 C24.674557,27.3143038 24.5960759,27.37 24.5391139,27.4218987 C24.4935443,27.5193671 24.2897468,27.4092405 24.3391139,27.5775949 C24.1808861,27.6332911 24.1631646,27.805443 24.0467089,27.9092405 C23.8467089,27.8750633 23.7593671,28.1003797 23.5720253,28.0953165 C23.5910127,28.134557 23.5720253,28.1978481 23.6277215,28.2029114 C23.745443,28.2535443 23.8593671,28.2662025 24.0011392,28.2472152 C24.1922785,27.9408861 24.5137975,28.1978481 24.7834177,28.0813924" id="Fill-35" fill="#006BB6"></path>
            <path d="M26.6748101,25.5787342 C26.6836709,25.6736709 26.6988608,25.8027848 26.7798734,25.8837975 C27.0292405,25.8470886 26.9229114,26.1926582 27.1520253,26.1610127 C27.2811392,26.123038 27.1596203,26.0141772 27.1963291,25.9306329 C27.1596203,25.7382278 26.9722785,25.7179747 26.8431646,25.6040506 C26.8305063,25.5660759 26.8583544,25.5331646 26.8748101,25.501519 C26.7798734,25.4508861 26.7355696,25.5078481 26.6748101,25.5787342" id="Fill-36" fill="#006BB6"></path>
            <path d="M26.3843038,16.741519 C25.7349367,16.5098734 25.0260759,16.4136709 24.3210127,16.3073418 L24.3855696,16.4478481 L24.3716456,18.1820253 L24.54,18.1491139 C25.6007595,18.2959494 26.5729114,18.6364557 27.4146835,19.3212658 L27.4602532,19.4567089 C27.7450633,19.0516456 28.1817722,18.7060759 28.5197468,18.3237975 L28.8412658,18.1364557 L28.6868354,18.0731646 C27.983038,17.4832911 27.2172152,17.0364557 26.3843038,16.741519" id="Fill-37" fill="#006BB6"></path>
            <path d="M14.4739241,23.8877215 L14.6131646,25.0662025 C14.6701266,25.5206329 14.8688608,25.9560759 14.8562025,26.4041772 C14.924557,26.3092405 14.881519,26.1155696 15.0549367,26.0965823 C14.9827848,25.9560759 15.1903797,25.834557 15.0739241,25.713038 C15.1308861,25.4067089 15.1675949,25.091519 15.4397468,24.8674684 C15.7663291,24.8548101 15.7916456,24.4244304 16.1182278,24.405443 C16.2840506,24.3978481 16.3865823,24.6231646 16.46,24.6991139 C16.2536709,24.4522785 16.2637975,24.0421519 16.316962,23.7598734 L16.1751899,23.8244304 C15.5802532,23.8117722 14.96,23.8598734 14.395443,23.7788608 L14.4739241,23.8877215 Z" id="Fill-38" fill="#006BB6"></path>
            <path d="M25.9553165,26.8841772 C26.1072152,26.7259494 26.4312658,26.7310127 26.4464557,26.5018987 C26.2211392,26.4664557 26.1072152,26.5892405 25.9553165,26.7120253 C25.9337975,26.7601266 25.865443,26.85 25.9553165,26.8841772" id="Fill-39" fill="#006BB6"></path>
            <path d="M30.028481,23.6713924 L30.2246835,23.8675949 C30.4221519,24.003038 30.2905063,24.2891139 30.5006329,24.4055696 C30.7474684,24.5334177 30.8386076,24.8220253 30.9512658,25.0397468 C30.9867089,24.9827848 30.9867089,24.9118987 31.0082278,24.8549367 C31.0943038,24.5017722 31.0829114,24.1055696 31.1917722,23.76 C30.806962,23.7789873 30.3639241,23.816962 30.028481,23.6713924" id="Fill-40" fill="#006BB6"></path>
            <path d="M27.4460759,28.1579747 C27.6637975,28.2149367 27.8118987,28.4858228 28.0853165,28.4010127 C28.316962,28.2731646 28.7005063,28.4782278 28.8549367,28.2351899 C28.8296203,27.998481 29.0346835,27.8250633 29.1372152,27.6212658 L29.2131646,27.6022785 C29.3422785,27.7351899 29.3359494,27.9351899 29.3929114,28.0807595 C29.5713924,27.8896203 29.7131646,27.6782278 29.8726582,27.4807595 C30.2941772,26.8655696 30.6549367,26.2060759 30.8068354,25.5022785 C30.6359494,25.5086076 30.4612658,25.5377215 30.303038,25.5896203 C30.1182278,25.5782278 29.8916456,25.6870886 29.7334177,25.5592405 C29.6764557,25.5086076 29.6346835,25.584557 29.6448101,25.6351899 C29.5789873,25.7313924 29.5144304,25.8529114 29.3675949,25.8086076 C29.2524051,25.7579747 29.2524051,25.6351899 29.2131646,25.5465823 C29.2194937,25.6162025 29.195443,25.6807595 29.181519,25.7440506 C29.0473418,25.884557 29.0005063,26.02 28.9068354,26.1731646 C28.7726582,26.3212658 28.5536709,26.2693671 28.4118987,26.3908861 C28.3865823,26.698481 28.0473418,26.6326582 27.8562025,26.7313924 C27.8422785,26.7681013 27.8878481,26.7756962 27.9055696,26.8086076 C27.9979747,26.8326582 28.116962,26.8326582 28.181519,26.7427848 C28.4524051,26.8149367 28.3941772,26.4756962 28.5498734,26.3592405 C28.6840506,26.3389873 28.8118987,26.2250633 28.9486076,26.3162025 C29.0929114,26.4870886 29.124557,26.7351899 29.1043038,26.9605063 C28.9486076,27.1136709 29.0283544,27.3643038 28.9194937,27.5440506 C28.9435443,27.755443 28.6865823,27.8503797 28.7207595,28.063038 C28.638481,28.1579747 28.495443,28.1718987 28.3675949,28.1718987 C27.8637975,27.9794937 27.3296203,27.8579747 26.7663291,27.8060759 C26.7156962,27.8250633 26.6827848,27.8693671 26.6916456,27.9288608 C26.9220253,28.0491139 27.203038,28.0567089 27.4460759,28.1579747" id="Fill-41" fill="#006BB6"></path>
            <path d="M23.6275949,33.7682278 L23.6934177,33.6707595 L23.4946835,33.7239241 C20.998481,33.5505063 18.7883544,32.666962 16.9643038,30.9049367 L16.9440506,30.9821519 L15.6250633,32.3074684 C17.6212658,34.0378481 19.8782278,35.153038 22.4503797,35.5036709 C22.8617722,35.574557 23.3301266,35.5353165 23.7250633,35.6581013 L23.6275949,35.5036709 L23.6275949,33.7682278 Z" id="Fill-42" fill="#006BB6"></path>
            <path d="M21.0472152,26.8649367 C21.7332911,27.4294937 22.5016456,27.7801266 23.3548101,27.9282278 C23.3991139,27.7560759 23.3294937,27.5383544 23.4193671,27.391519 C23.4826582,27.248481 23.6548101,27.2560759 23.7839241,27.2801266 C23.8586076,27.2737975 23.9067089,27.1788608 23.8586076,27.113038 C23.6750633,27.0775949 23.7586076,26.8712658 23.6927848,26.7560759 C23.7029114,26.6927848 23.8092405,26.705443 23.7839241,26.6206329 C23.6548101,26.5193671 23.8459494,26.4041772 23.7383544,26.2953165 C23.7687342,26.2737975 23.7927848,26.2358228 23.8244304,26.213038 C23.4383544,26.3763291 23.0244304,26.1396203 22.6826582,25.9877215 C22.5143038,25.8889873 22.2725316,25.7953165 22.234557,25.5902532 C21.9598734,26.0383544 21.4307595,26.448481 21.0472152,26.8649367" id="Fill-43" fill="#006BB6"></path>
            <path d="M20.3889873,24.8679747 C20.326962,24.8350633 20.3193671,24.8426582 20.2674684,24.8983544 C20.2358228,24.8983544 20.1965823,24.9046835 20.1725316,24.8856962 C20.1725316,24.5211392 19.7624051,24.7401266 19.6092405,24.5489873 C19.7877215,24.8793671 19.8839241,25.2578481 20.0687342,25.5894937 C20.1851899,25.8844304 20.4396203,26.1160759 20.5560759,26.4046835 C20.6788608,26.173038 20.9206329,25.9882278 21.0953165,25.7768354 C21.1067089,25.6818987 21.0877215,25.5970886 21.034557,25.5274684 C20.9775949,25.3907595 21.0294937,25.2008861 20.9256962,25.0856962 C20.7611392,25.1439241 20.9851899,25.3097468 20.9143038,25.4072152 C20.8446835,25.4502532 20.7662025,25.3907595 20.7611392,25.3274684 C20.6143038,25.3034177 20.4978481,25.1743038 20.4522785,25.0388608 C20.5737975,24.9629114 20.4218987,24.93 20.3889873,24.8679747" id="Fill-44" fill="#006BB6"></path>
            <path d="M21.6188608,25.0534177 C21.5783544,25.2129114 21.4720253,25.3521519 21.3543038,25.4686076 L21.3758228,25.4812658 C21.5289873,25.3711392 21.6403797,25.1749367 21.8365823,25.1622785 L21.6188608,25.0534177 Z" id="Fill-45" fill="#006BB6"></path>
            <path d="M23.4762025,31.2774684 C21.9192405,31.1989873 20.5559494,30.6306329 19.344557,29.7268354 C19.3825316,29.88 19.5875949,29.9787342 19.5306329,30.1686076 C19.4217722,30.344557 19.1977215,30.3470886 19.0192405,30.344557 C18.6521519,30.2837975 18.3837975,30.5610127 18.0407595,30.5977215 C17.7255696,30.6951899 17.6167089,30.3091139 17.3293671,30.344557 C19.1078481,31.8964557 21.1420253,32.8711392 23.5268354,32.9989873 L23.7065823,33.1205063 L23.6281013,32.9040506 L23.6281013,31.2129114 L23.4762025,31.2774684 Z" id="Fill-46" fill="#006BB6"></path>
            <path d="M16.56,30.4443038 C16.3422785,30.2898734 16.1486076,30.043038 15.9650633,29.8278481 C15.7524051,29.7721519 15.5346835,29.6253165 15.4258228,29.4202532 C15.3625316,29.3481013 15.4220253,29.2227848 15.3498734,29.1708861 L15.2713924,29.2670886 C15.0460759,29.3746835 14.9675949,29.1443038 14.8131646,29.0493671 C14.6131646,28.9417722 14.7106329,28.5632911 14.4397468,28.6329114 C14.338481,28.6265823 14.3055696,28.5113924 14.2410127,28.4481013 C13.9929114,28.4721519 13.9283544,28.1974684 13.7929114,28.0632911 C13.7675949,28.121519 13.7929114,28.1974684 13.716962,28.235443 C13.4612658,28.2936709 13.3726582,27.9797468 13.1967089,27.8506329 C13.1524051,27.8696203 13.1207595,27.9240506 13.0549367,27.9101266 C12.9043038,27.7746835 12.8017722,27.5822785 12.7916456,27.3708861 C12.581519,27.1316456 12.6789873,26.7556962 12.716962,26.4658228 C12.7562025,26.3898734 12.8675949,26.3468354 12.8448101,26.2506329 C12.9043038,26.1164557 13.0460759,26.1025316 13.1802532,26.0962025 C13.2321519,26.1227848 13.2827848,26.1734177 13.3068354,26.2189873 C13.3903797,26.1670886 13.5777215,26.2253165 13.5055696,26.0392405 C13.6144304,25.943038 13.7751899,25.9088608 13.9232911,25.8835443 C14.024557,26.0139241 14.0751899,26.1620253 14.2118987,26.2810127 L14.1220253,26.1417722 C13.9675949,25.5139241 13.8473418,24.8734177 13.8131646,24.1949367 C13.8194937,24.156962 13.7321519,24.1379747 13.781519,24.1 L13.7929114,24.1189873 C13.8017722,23.9772152 13.7891139,23.8556962 13.8131646,23.7594937 L13.6410127,23.8253165 L11.86,23.8113924 C11.9612658,25.8594937 12.5068354,27.7227848 13.4283544,29.435443 C13.8840506,30.278481 14.5498734,31.0392405 15.1308861,31.8291139 L16.4043038,30.5088608 L16.56,30.4443038 Z" id="Fill-47" fill="#006BB6"></path>
            <path d="M18.6088608,15.4929114 C18.2113924,15.7688608 17.8468354,16.1270886 17.4367089,16.3701266 C17.9139241,16.6713924 18.3025316,17.1713924 18.7303797,17.5663291 L18.7746835,17.6891139 C19.8658228,16.6460759 21.1898734,16.038481 22.6177215,15.7435443 C22.956962,15.7093671 23.2987342,15.595443 23.6278481,15.6663291 C23.6037975,15.0574684 23.5506329,14.4232911 23.6139241,13.8207595 C21.7582278,13.9308861 20.0974684,14.4929114 18.6088608,15.4929114" id="Fill-48" fill="#006BB6"></path>
            <path d="M17.0846835,22.1781013 C17.0137975,22.4844304 17.053038,22.8413924 16.9302532,23.1325316 C17.1568354,23.0274684 17.4821519,23.0679747 17.7302532,23.0996203 C17.5872152,23.0224051 17.7074684,22.8375949 17.6213924,22.7337975 C17.6036709,22.5755696 17.5758228,22.3768354 17.7302532,22.273038 C17.7137975,22.0110127 17.9922785,21.8755696 18.0201266,21.6388608 C18.0910127,21.3705063 18.3973418,21.551519 18.545443,21.4097468 C18.6403797,21.3578481 18.5593671,21.2679747 18.5593671,21.1983544 C18.6859494,21.0236709 18.8846835,21.0325316 19.0365823,20.9350633 C19.1467089,20.7692405 19.288481,20.5894937 19.466962,20.4894937 C19.853038,20.5021519 19.8581013,19.9629114 20.2226582,19.9489873 C19.7239241,19.5717722 19.2492405,19.0667089 18.8074684,18.63 C17.9251899,19.686962 17.3213924,20.851519 17.0846835,22.1781013" id="Fill-49" fill="#006BB6"></path>
            <path d="M17.3288608,24.7764557 C17.3478481,24.6612658 17.1756962,24.6296203 17.1934177,24.5144304 C17.3162025,24.2777215 17.1997468,23.8929114 17.5136709,23.7903797 C17.2908861,23.8296203 17.0921519,23.8739241 16.8997468,23.7346835 L16.9934177,23.8878481 C17.0073418,24.3106329 17.1756962,24.7144304 17.084557,25.1435443 C17.1567089,25.0207595 17.1756962,24.8549367 17.3288608,24.7764557" id="Fill-50" fill="#006BB6"></path>
            <polygon id="Fill-51" fill="#006BB6" points="19.0946835 29.3991139 19.0693671 29.3548101 19.0946835 29.434557"></polygon>
            <path d="M16.9641772,16.9070886 L16.2705063,17.7868354 C15.1388608,19.34 14.5983544,21.1412658 14.4388608,23.0994937 L16.1958228,23.0678481 L16.3616456,23.1324051 C16.2920253,23.0855696 16.308481,23.0096203 16.2844304,22.9463291 C16.4262025,21.1210127 17.0667089,19.4956962 18.3262025,18.1374684 C17.8401266,17.7146835 17.3844304,17.2678481 16.9743038,16.7855696 L16.9641772,16.9070886 Z" id="Fill-52" fill="#006BB6"></path>
            <path d="M22.3722785,28.8824051 C22.5140506,28.7317722 22.6786076,28.633038 22.8532911,28.568481 C22.2849367,28.6836709 21.7836709,28.2748101 21.2975949,28.0494937 C21.0229114,27.8444304 20.6634177,27.6773418 20.4988608,27.3710127 C20.1191139,27.8317722 19.6722785,28.311519 19.2241772,28.6773418 C19.4203797,28.69 19.5305063,28.9089873 19.6988608,29.0051899 C20.6596203,29.8039241 21.8558228,30.19 22.9672152,30.4646835 L22.6634177,30.3216456 C22.4317722,30.0608861 22.1039241,29.7520253 22.0925316,29.3887342 C22.3216456,29.3102532 22.2975949,29.0558228 22.3722785,28.8824051" id="Fill-53" fill="#006BB6"></path>
            <path d="M17.9926582,23.7906329 L17.9420253,24.1298734 C17.8660759,24.3298734 17.615443,24.1817722 17.501519,24.3172152 C17.4192405,24.4437975 17.5065823,24.5792405 17.5762025,24.6805063 C17.3977215,25.0918987 17.9825316,25.2210127 17.9736709,25.5893671 C18.1534177,25.8210127 17.9496203,26.1539241 18.2065823,26.3589873 C18.2622785,26.775443 18.1483544,27.3387342 18.5141772,27.6653165 L18.5787342,28.0627848 C18.6534177,28.3374684 18.2508861,28.2653165 18.3027848,28.5108861 C18.3812658,28.4729114 18.3977215,28.575443 18.4040506,28.5994937 L18.4040506,28.5881013 C18.8977215,28.0172152 19.4673418,27.4159494 20.0483544,26.9108861 L19.8065823,26.6665823 C19.3521519,25.9868354 18.9926582,25.2640506 18.8205063,24.4703797 L18.6356962,24.375443 C18.6281013,24.5792405 18.5318987,24.74 18.5458228,24.9437975 L18.48,25.0210127 C18.3470886,25.0159494 18.2622785,24.904557 18.1483544,24.8349367 C18.1217722,24.7653165 18.0508861,24.6501266 18.1622785,24.5918987 C18.2255696,24.5868354 18.2698734,24.6058228 18.3167089,24.6349367 C18.3736709,24.5665823 18.3470886,24.4640506 18.3812658,24.375443 C18.3977215,24.2197468 18.2622785,24.0792405 18.358481,23.9463291 C18.48,23.9336709 18.5724051,24.0792405 18.6217722,24.161519 C18.7432911,24.2007595 18.8394937,24.1007595 18.9420253,24.0539241 C18.9420253,23.9463291 19.0951899,23.796962 18.9293671,23.7349367 C19.0205063,23.4843038 18.9546835,23.2210127 18.9141772,22.9792405 C18.8458228,22.7678481 18.6091139,22.8058228 18.4356962,22.8235443 C17.9179747,22.9906329 18.5205063,23.3817722 18.3926582,23.7020253 C18.3192405,23.8881013 18.1281013,23.7146835 17.9926582,23.7906329" id="Fill-54" fill="#006BB6"></path>
            <path d="M34.4044304,23.7591139 L34.2981013,23.6818987 L34.3601266,23.8553165 C34.2601266,25.9882278 33.5487342,27.8692405 32.328481,29.5439241 C32.0943038,29.8236709 31.8727848,30.1679747 31.5765823,30.3679747 C32.0639241,30.751519 32.6031646,31.3274684 33.0044304,31.7705063 L33.0537975,31.6755696 C35.014557,29.4401266 36.128481,26.8502532 36.25,23.8553165 L36.3272152,23.7021519 L36.2322785,23.7489873 L34.4044304,23.7591139 Z" id="Fill-55" fill="#006BB6"></path>
            <path d="M17.0531646,15.92 L17.0848101,15.8313924 C18.9544304,14.1288608 21.1316456,13.1934177 23.6278481,13.0782278 L23.5708861,12.9250633 L23.5506329,11.3870886 L23.6037975,11.2073418 C21.0303797,11.3098734 18.743038,12.1883544 16.7151899,13.6478481 C16.3240506,13.9174684 15.978481,14.3263291 15.5797468,14.5579747 L15.6367089,14.5579747 C16.143038,14.9275949 16.6253165,15.4605063 17.0531646,15.92" id="Fill-56" fill="#006BB6"></path>
            <path d="M23.5405063,16.3564557 C21.9139241,16.4729114 20.5025316,17.1501266 19.2683544,18.1703797 C19.7556962,18.5070886 20.1898734,19.0513924 20.6329114,19.4412658 C20.664557,19.3982278 20.6974684,19.3539241 20.7278481,19.3020253 C21.3379747,18.8678481 21.9658228,18.4703797 22.6822785,18.2906329 C23,18.2577215 23.3164557,18.1070886 23.6481013,18.1817722 C23.5797468,17.5792405 23.5797468,16.9146835 23.6481013,16.2931646 L23.5405063,16.3564557 Z" id="Fill-57" fill="#006BB6"></path>
            <path d="M23.6275949,18.8917722 C22.598481,19.0272152 21.6503797,19.3791139 20.8959494,20.1803797 L21.0339241,20.1803797 C21.1896203,20.3335443 21.4377215,20.3006329 21.5541772,20.506962 C21.6124051,20.6221519 21.4453165,20.6094937 21.4516456,20.7044304 C21.484557,20.7322785 21.5288608,20.7373418 21.5541772,20.7829114 C21.6756962,20.8246835 21.6503797,20.7120253 21.6972152,20.6601266 C21.855443,20.5006329 21.8820253,20.814557 22.0351899,20.814557 C22.1440506,20.7436709 22.2972152,20.7373418 22.3718987,20.8588608 C22.476962,20.7677215 22.6946835,20.8512658 22.7263291,20.6867089 C22.9275949,20.4753165 22.8174684,20.1487342 23.1111392,20.014557 C23.2124051,20.071519 23.1048101,20.1677215 23.1427848,20.2575949 C23.3402532,20.3398734 23.5655696,20.0905063 23.7250633,20.2905063 C23.5794937,19.871519 23.6136709,19.3537975 23.6275949,18.8917722" id="Fill-58" fill="#006BB6"></path>
            <path d="M23.6931646,21.7621519 C23.5020253,22.0811392 23.1817722,22.1520253 22.8805063,22.2418987 C22.796962,22.3431646 22.8172152,22.568481 22.618481,22.5482278 C22.5551899,22.69 22.3362025,22.7735443 22.4210127,22.9786076 C22.3159494,23.1963291 22.3665823,23.4773418 22.3121519,23.7153165 C21.9324051,23.9520253 22.04,23.4001266 21.8513924,23.2849367 L21.7843038,23.3950633 C21.7108861,23.4140506 21.6589873,23.368481 21.6058228,23.3191139 C21.5488608,23.2963291 21.4513924,23.2773418 21.4007595,23.3305063 C21.3172152,23.4735443 21.1893671,23.5862025 21.2210127,23.7786076 C21.1843038,23.8937975 20.9918987,23.8558228 21.0172152,23.9773418 C21.2298734,23.9722785 21.4577215,23.933038 21.6627848,23.8874684 C21.8121519,23.925443 21.9324051,23.8178481 22.0805063,23.811519 C22.1286076,23.8368354 22.1918987,23.8874684 22.1691139,23.9646835 L22.2210127,23.9646835 C22.3222785,23.8874684 22.3665823,23.7697468 22.3222785,23.6583544 C22.3362025,23.5229114 22.4843038,23.5229114 22.5716456,23.4836709 C22.6564557,23.5229114 22.604557,23.6051899 22.618481,23.6710127 C22.9058228,23.7786076 22.5488608,23.99 22.5070886,24.1431646 C22.4324051,24.2659494 22.5070886,24.5406329 22.2653165,24.5026582 C22.2210127,24.49 22.1918987,24.4444304 22.2032911,24.3925316 L22.1691139,24.3925316 C22.1640506,24.4963291 22.2425316,24.6368354 22.3437975,24.6798734 C22.5210127,24.533038 22.5273418,24.2836709 22.7868354,24.2507595 C22.918481,24.1102532 22.7260759,23.8937975 22.9273418,23.7786076 C23.2589873,23.7697468 23.6146835,23.6305063 23.8792405,23.8988608 C23.8589873,24.0140506 23.8172152,24.068481 23.9121519,24.1621519 C23.8463291,24.311519 23.804557,24.4697468 23.6817722,24.5912658 C23.7134177,24.6748101 23.6881013,24.7760759 23.6146835,24.8355696 C23.5273418,25.225443 23.0779747,25.0393671 22.8172152,25.1748101 C23.2210127,25.4811392 23.7058228,25.5963291 24.2311392,25.5583544 C24.5058228,25.546962 24.3843038,25.2064557 24.5260759,25.0532911 C24.6146835,24.6064557 25.0273418,24.911519 25.275443,24.79 C25.3716456,24.6001266 25.4678481,24.4127848 25.4918987,24.1950633 C25.3324051,24.0937975 25.2703797,23.8988608 25.3197468,23.7153165 C25.2121519,23.5672152 25.2222785,23.2975949 24.9855696,23.2710127 C24.9501266,23.2216456 24.9792405,23.154557 25.0121519,23.1203797 C25.0070886,22.9786076 25.1463291,22.933038 25.1843038,22.8241772 C25.0387342,22.7279747 25.0767089,22.5178481 25.0893671,22.3937975 C24.8387342,22.4672152 24.8134177,22.1393671 24.6286076,22.0697468 C24.583038,21.9203797 24.4235443,21.8950633 24.2956962,21.8710127 C23.9868354,22.0178481 23.9374684,21.6393671 23.7058228,21.5507595 C23.6817722,21.4798734 23.6273418,21.3773418 23.7058228,21.3203797 C23.8235443,21.2241772 23.975443,21.3064557 24.1096203,21.2988608 L24.0007595,21.2418987 C23.8994937,21.1279747 23.6741772,21.1988608 23.54,21.2418987 C23.6678481,21.3697468 23.6146835,21.6013924 23.6931646,21.7621519" id="Fill-59" fill="#006BB6"></path>
            <path d="M13.8249367,23.12 L13.7806329,22.8693671 C13.9034177,20.8250633 14.5553165,19.0086076 15.7021519,17.3820253 C15.9882278,17.0541772 16.2008861,16.6465823 16.5603797,16.4010127 C16.1439241,16.0111392 15.7110127,15.555443 15.2717722,15.1288608 L15.2274684,14.9529114 C13.4021519,16.984557 12.2768354,19.3010127 11.9489873,21.9478481 C11.8768354,22.3313924 11.9262025,22.7275949 11.8477215,23.12 C12.4882278,23.0681013 13.1831646,23.0681013 13.8249367,23.12" id="Fill-60" fill="#006BB6"></path>
            <path d="M31.1489873,30.7717722 C30.9667089,31.1224051 30.5705063,31.3464557 30.2692405,31.6160759 C29.8540506,32.0337975 29.1743038,32.1211392 28.9629114,32.7249367 C28.7413924,32.9287342 28.6641772,33.2489873 28.3502532,33.3641772 C28.2325316,33.6717722 27.9059494,33.6540506 27.7211392,33.8755696 C27.1831646,34.3565823 26.8363291,33.5692405 26.351519,33.4743038 L25.3717722,33.6464557 C25.0312658,33.6464557 24.6920253,33.7679747 24.3705063,33.6591139 C24.4186076,34.3097468 24.4186076,35.0160759 24.3705063,35.6692405 L24.4932911,35.5920253 C27.5806329,35.4591139 30.2439241,34.2856962 32.5287342,32.2122785 L31.1793671,30.9249367 L31.1489873,30.7717722 Z" id="Fill-61" fill="#006BB6"></path>
            <path d="M24.3396203,12.91 C24.3396203,12.8543038 24.3649367,12.8036709 24.3991139,12.7593671 C24.4877215,12.7062025 24.5624051,12.7846835 24.6003797,12.8467089 C24.6079747,12.9378481 24.6472152,13.0922785 24.5712658,13.1429114 C24.6472152,13.1555696 24.6877215,13.0986076 24.7548101,13.0986076 C26.2206329,13.2074684 27.5801266,13.6353165 28.7978481,14.3277215 L28.7978481,14.2960759 C29.0472152,14.1732911 29.3674684,14.0137975 29.6231646,14.2302532 C29.9307595,14.1163291 29.9877215,14.4935443 30.2370886,14.5378481 C30.5396203,14.7175949 30.8801266,15.0517722 30.9168354,15.4036709 C30.9725316,15.5188608 31.1548101,15.6011392 31.1788608,15.7226582 C31.3839241,15.288481 31.7940506,14.9783544 32.1472152,14.6024051 L32.3636709,14.5125316 C30.4307595,12.6682278 28.1320253,11.6492405 25.5687342,11.2973418 C25.1611392,11.2277215 24.7105063,11.2656962 24.3206329,11.1441772 C24.3991139,11.6492405 24.3775949,12.3416456 24.3396203,12.91" id="Fill-62" fill="#006BB6"></path>
            <path d="M24.3396203,15.6660759 C24.5826582,15.5812658 24.8320253,15.6850633 25.0775949,15.6913924 C26.3320253,15.8977215 27.5181013,16.2989873 28.5193671,17.0736709 C28.4003797,16.944557 28.2522785,16.8002532 28.2256962,16.6129114 C28.2472152,16.5875949 28.2725316,16.5825316 28.3041772,16.5875949 C28.3181013,16.3875949 28.105443,16.2863291 28.0750633,16.1065823 C28.105443,16.0698734 28.1522785,16.0306329 28.2168354,16.0496203 C28.4307595,16.2546835 28.6155696,16.48 28.7775949,16.7078481 C28.9193671,16.6521519 29.034557,16.7420253 29.1383544,16.8167089 C29.3231646,16.9255696 29.2079747,17.1635443 29.3497468,17.2926582 C29.3750633,17.6698734 29.8358228,17.8812658 29.8105063,18.258481 C29.8143038,18.3483544 29.9244304,18.2774684 29.9624051,18.323038 L30.3472152,18.7951899 C30.2763291,18.8863291 30.334557,18.9951899 30.413038,19.0572152 C30.5851899,19.136962 30.6813924,18.9167089 30.8522785,18.9496203 C31.1016456,19.0913924 30.8143038,19.2572152 30.8383544,19.4116456 C30.934557,19.4167089 31.0586076,19.3344304 31.1358228,19.4306329 C31.1674684,19.5724051 31.0193671,19.6610127 30.9598734,19.7521519 C30.9598734,19.8913924 31.0763291,19.8610127 31.1788608,19.8913924 C31.2940506,19.8850633 31.3649367,20.0268354 31.334557,20.123038 C31.6535443,20.4559494 31.2370886,20.8141772 31.391519,21.1673418 C31.491519,21.3951899 31.3649367,21.6205063 31.2218987,21.7926582 C31.2307595,22.0762025 30.9725316,22.2483544 30.8737975,22.4850633 L30.5459494,22.5483544 C30.3712658,22.7205063 30.6953165,22.9331646 30.5193671,23.0432911 L31.2370886,23.0559494 L31.1586076,22.9787342 C31.0586076,22.6989873 31.0826582,22.3179747 31.2560759,22.0686076 C31.3649367,21.8394937 31.391519,21.5622785 31.5965823,21.3648101 C31.6408861,21.3521519 31.7218987,21.2686076 31.7624051,21.3648101 C31.7750633,21.5825316 31.7573418,21.8318987 31.6535443,22.0243038 C31.8598734,22.3179747 31.8320253,22.7027848 31.8510127,23.0673418 C32.4851899,23.0281013 33.1067089,23.0167089 33.7294937,23.023038 L33.6725316,22.9002532 C33.5750633,21.7167089 33.3320253,20.5964557 32.8383544,19.5850633 C32.7041772,19.5926582 32.6079747,19.6989873 32.4548101,19.6610127 C32.4029114,19.6432911 32.37,19.5926582 32.3775949,19.5344304 C32.1206329,19.2901266 31.9598734,18.9698734 31.6737975,18.7508861 C31.3434177,18.7837975 31.1978481,18.4053165 30.9041772,18.3673418 C30.6421519,18.258481 30.8218987,17.8356962 30.4421519,17.9521519 C30.2573418,17.8749367 30.0763291,17.7344304 30.0396203,17.523038 C30.0396203,17.1888608 29.9750633,16.8306329 29.6763291,16.6129114 C29.4434177,16.5293671 29.3497468,16.8356962 29.1168354,16.7863291 C28.9889873,16.7205063 29.0472152,16.5559494 29.0067089,16.4470886 C28.9624051,16.3496203 28.8535443,16.28 28.8737975,16.1508861 C29.1737975,15.7546835 28.5079747,15.7635443 28.6560759,15.3711392 C28.6155696,15.0875949 28.3294937,14.98 28.1813924,14.7559494 C27.1889873,14.3078481 26.1965823,14.0027848 25.0775949,13.8660759 C24.8016456,13.8268354 24.5459494,13.8850633 24.3092405,13.758481 L24.3712658,13.8774684 C24.3573418,14.4749367 24.3991139,15.1078481 24.3396203,15.6660759" id="Fill-63" fill="#006BB6"></path>
            <path d="M31.3437975,16.3249367 C31.4792405,16.3565823 31.5197468,16.5173418 31.6096203,16.6135443 C32.075443,16.8616456 32.196962,17.3629114 32.6083544,17.6439241 C32.8387342,18.1262025 33.3703797,18.4958228 33.3893671,19.0464557 C33.9437975,20.2768354 34.3235443,21.5755696 34.3602532,23.0236709 L34.3121519,23.0996203 C34.3678481,23.0996203 34.418481,23.0743038 34.4627848,23.0426582 L36.3096203,23.0097468 C36.1881013,22.8312658 36.2387342,22.5692405 36.2070886,22.351519 C35.961519,19.5021519 34.7463291,17.0616456 32.8387342,14.9097468 C32.4843038,15.3831646 32.0058228,15.8249367 31.5627848,16.2793671 L31.3437975,16.3249367 Z" id="Fill-64" fill="#006BB6"></path>
            <path d="M24.5998734,12.6059494 C24.6555696,12.5034177 24.8024051,12.5401266 24.8783544,12.573038 L25.8011392,12.1768354 C26.1707595,12.2072152 26.5796203,12.2527848 26.7998734,12.5603797 L26.7998734,12.6059494 C26.5694937,12.7958228 26.2758228,12.9489873 25.9682278,12.8211392 C25.5441772,12.9059494 24.953038,13.1489873 24.6150633,12.7135443 C24.5998734,12.6818987 24.5631646,12.6363291 24.5998734,12.6059494" id="Fill-65" fill="#FEFEFE"></path>
            <path d="M30.1026582,13.7691139 C30.2305063,13.8096203 30.346962,13.8665823 30.3925316,14.0020253 C30.3583544,14.1463291 30.5267089,14.2691139 30.4229114,14.3843038 C30.0760759,14.4741772 30.0456962,14.0843038 29.7773418,13.9881013 C29.7393671,13.9349367 29.7267089,13.8716456 29.733038,13.8020253 C29.8532911,13.6551899 29.968481,13.8982278 30.1026582,13.7691139" id="Fill-66" fill="#FEFEFE"></path>
        </g>
    </g>
</svg>